:SAMPLES-PER-SECOND 30
:FULLY-SPECIFIED
:DEGREES
215
root  17.5011 39.9876 -0.123065 37.7257 88.2472 41.4586
RightUpLeg  -6.35436 -15.3259 -0.839876
RightLeg  16.9766 -8.83195 3.52366
RightFoot  -5.49093 0.294637 -6.48311
RightToes  0.00048216 0.542163 -0.142577
Spine  16.5151 1.38577 11.3038
Spine1  11.9457 6.64965 -11.0353
HEad  36.3064 36.01 -3.55432
LeftShoulder1  5.47874 -8.23116 -40.3813
LeftArm  -23.427 25.9301 -33.4695
LeftForeArm  28.8688 -31.0504 -5.17728
LeftHand  -0.25398 0.0180481 5.50724
RightShoulder  5.60247 9.82812 36.0408
RightArm  5.22513 -14.664 35.1652
RightForeArm  -9.68477 27.9912 6.54622
RightHand  -2.19258 5.36815 -23.7086
LeftUpLeg  -15.4157 3.83009 4.01141
LeftLeg  39.7438 7.21634 6.74851
LeftFoot  -4.51293 0.418069 -6.56411
LeftToes  1.06246e-005 4.65856e-005 -8.18501e-006
216
root  16.3553 39.9566 -0.41944 36.9526 88.9111 39.8876
RightUpLeg  -8.30892 -12.7242 -0.79072
RightLeg  15.247 -11.9423 4.32948
RightFoot  -3.55688 0.398919 -6.20155
RightToes  0.00048216 0.542163 -0.142577
Spine  15.186 1.09884 11.674
Spine1  11.5713 6.19945 -10.6524
HEad  35.7915 34.7381 -3.76743
LeftShoulder1  5.61625 -8.4306 -40.7331
LeftArm  -23.6899 24.1928 -32.7816
LeftForeArm  29.5423 -33.6974 -5.78462
LeftHand  -0.25398 0.0180481 5.50724
RightShoulder  5.58143 9.79475 35.9893
RightArm  5.56271 -15.2701 35.3891
RightForeArm  -10.286 26.9096 6.31456
RightHand  -2.29302 5.70674 -24.0331
LeftUpLeg  -12.0796 2.94284 5.02209
LeftLeg  42.6123 5.94129 6.21021
LeftFoot  -5.52806 0.393074 -7.07436
LeftToes  1.06246e-005 4.65856e-005 -8.18501e-006
217
root  15.1505 39.8391 -0.768242 6.81186 89.3311 9.26262
RightUpLeg  -10.3767 -11.5489 -0.451388
RightLeg  14.1988 -13.5384 4.81437
RightFoot  -1.69483 0.492442 -5.96032
RightToes  0.00048216 0.542163 -0.142577
Spine  14.4107 0.732323 12.3958
Spine1  11.2459 5.76609 -10.3419
HEad  34.468 33.5137 -4.79662
LeftShoulder1  5.82643 -8.73642 -41.2446
LeftArm  -23.9355 22.7918 -31.6891
LeftForeArm  31.0225 -36.771 -6.49904
LeftHand  -0.25398 0.0180481 5.50724
RightShoulder  5.59527 9.79689 36.0842
RightArm  5.66559 -15.9366 35.2967
RightForeArm  -11.5568 25.6399 6.07205
RightHand  -2.2871 5.68284 -24.0231
LeftUpLeg  -7.93595 2.8962 6.05452
LeftLeg  43.8995 5.0627 5.59338
LeftFoot  -5.7367 0.369479 -6.86507
LeftToes  1.06246e-005 4.65856e-005 -8.18501e-006
218
root  13.9047 39.6619 -1.16121 -34.6969 88.8027 -32.5181
RightUpLeg  -12.4786 -11.5025 0.0529942
RightLeg  13.5605 -13.5253 5.1595
RightFoot  0.198975 0.541035 -5.33959
RightToes  0.00048216 0.542163 -0.142577
Spine  14.0069 0.418562 12.9829
Spine1  11.059 5.36845 -10.047
HEad  32.5095 32.4375 -6.52158
LeftShoulder1  6.02794 -9.04204 -41.6668
LeftArm  -24.3146 21.8217 -30.5675
LeftForeArm  32.9151 -40.0725 -7.31791
LeftHand  -0.25398 0.0180481 5.50724
RightShoulder  5.62699 9.8528 36.1442
RightArm  6.29989 -16.4475 35.0912
RightForeArm  -13.5637 24.0638 5.82732
RightHand  -2.37471 5.99556 -24.2481
LeftUpLeg  -3.20137 4.35073 7.08773
LeftLeg  43.4362 4.73426 5.17606
LeftFoot  -4.61387 0.37294 -5.85581
LeftToes  1.06246e-005 4.65856e-005 -8.18501e-006
219
root  12.6294 39.4336 -1.57624 -44.8781 87.9894 -42.901
RightUpLeg  -14.5345 -11.7719 0.627856
RightLeg  12.9309 -12.9974 5.43235
RightFoot  1.81054 0.461821 -3.89871
RightToes  0.00048216 0.542163 -0.142577
Spine  13.8365 0.0509619 13.1711
Spine1  10.7382 4.7208 -9.39516
HEad  30.4758 31.4893 -8.34712
LeftShoulder1  6.10816 -9.20229 -41.692
LeftArm  -24.8418 21.4315 -29.697
LeftForeArm  34.7469 -43.3181 -8.20942
LeftHand  -0.25398 0.0180481 5.50724
RightShoulder  5.6126 9.91021 35.8631
RightArm  7.89104 -17.051 35.1503
RightForeArm  -15.7008 22.1719 5.81817
RightHand  -2.66688 6.93525 -25.1299
LeftUpLeg  1.99624 6.4608 8.32286
LeftLeg  40.7247 4.47928 4.50417
LeftFoot  -3.67455 0.464454 -6.56833
LeftToes  1.06246e-005 4.65856e-005 -8.18501e-006
220
root  11.3177 39.2222 -1.98942 -55.0261 87.5517 -53.1379
RightUpLeg  -16.0506 -11.5227 0.822146
RightLeg  11.3727 -13.4916 5.82439
RightFoot  3.49395 0.312276 -2.21235
RightToes  0.00048216 0.542163 -0.142577
Spine  13.9838 -0.403615 12.8533
Spine1  10.1235 3.78483 -8.45373
HEad  28.5076 30.171 -9.85913
LeftShoulder1  6.05774 -9.22323 -41.2479
LeftArm  -25.4005 21.2161 -29.1518
LeftForeArm  36.0278 -46.0211 -9.04731
LeftHand  -0.25398 0.0180481 5.50724
RightShoulder  5.57021 9.97424 35.3608
RightArm  9.80561 -18.3114 35.3611
RightForeArm  -16.1891 20.4342 6.28118
RightHand  -2.917 7.7061 -25.8577
LeftUpLeg  7.67448 8.01126 9.39583
LeftLeg  34.9787 3.93961 3.32786
LeftFoot  -5.64956 0.524217 -10.2027
LeftToes  1.06246e-005 4.65856e-005 -8.18501e-006
221
root  9.94472 39.065 -2.39903 -61.572 87.706 -59.6833
RightUpLeg  -16.9317 -10.8449 0.204114
RightLeg  8.58427 -15.0473 6.4884
RightFoot  5.77493 0.193458 -1.02035
RightToes  0.00048216 0.542163 -0.142577
Spine  14.4081 -0.70603 11.89
Spine1  9.57402 2.93767 -7.66728
HEad  26.0305 27.7855 -11.0995
LeftShoulder1  5.96994 -9.22977 -40.5789
LeftArm  -25.9939 20.2745 -28.7362
LeftForeArm  36.5844 -47.7162 -9.63759
LeftHand  -0.25398 0.0180481 5.50724
RightShoulder  5.61923 10.1431 35.2101
RightArm  11.794 -20.3562 35.3294
RightForeArm  -14.9367 19.3931 6.70117
RightHand  -2.82375 7.50362 -25.4275
LeftUpLeg  13.0619 9.24235 9.51133
LeftLeg  26.5732 3.00721 2.02626
LeftFoot  -10.9923 0.111359 -13.8264
LeftToes  1.06246e-005 4.65856e-005 -8.18501e-006
222
root  8.4619 38.917 -2.79424 -39.3937 88.5791 -37.7048
RightUpLeg  -17.7809 -10.1998 -1.37593
RightLeg  5.15471 -16.5566 7.33243
RightFoot  7.91909 -0.0663561 0.691782
RightToes  0.00048216 0.542163 -0.142577
Spine  14.8437 -0.656889 9.82756
Spine1  9.52204 2.37097 -6.95292
HEad  22.6797 24.1702 -12.022
LeftShoulder1  5.94327 -9.32705 -40.0492
LeftArm  -26.7069 18.2554 -28.0593
LeftForeArm  36.5933 -48.3504 -9.88529
LeftHand  -0.25398 0.0180481 5.50724
RightShoulder  5.81581 10.4419 35.7258
RightArm  13.0656 -22.6752 35.1488
RightForeArm  -12.9564 18.7586 6.95918
RightHand  -2.48443 6.55591 -24.1966
LeftUpLeg  16.1954 10.6451 8.1182
LeftLeg  18.3915 2.41996 0.966277
LeftFoot  -16.8912 -0.535362 -13.447
LeftToes  1.06246e-005 4.65856e-005 -8.18501e-006
223
root  6.90397 38.7787 -3.12578 43.6269 88.9498 44.7223
RightUpLeg  -18.6778 -9.8828 -3.86297
RightLeg  1.1956 -17.3557 8.15333
RightFoot  8.31478 -0.776538 4.85996
RightToes  0.00048216 0.542163 -0.142577
Spine  15.0467 -0.39767 6.257
Spine1  9.76824 1.83337 -5.81415
HEad  19.1788 19.9241 -12.2144
LeftShoulder1  6.00234 -9.52006 -39.8305
LeftArm  -27.3422 15.8905 -26.8674
LeftForeArm  36.2234 -48.1505 -9.83404
LeftHand  -0.25398 0.0180481 5.50724
RightShoulder  6.05858 10.7122 36.6196
RightArm  12.8872 -24.8391 35.4739
RightForeArm  -11.0969 17.7459 7.41095
RightHand  -2.12984 5.35408 -23.0992
LeftUpLeg  15.5585 10.3652 5.02562
LeftLeg  14.1099 4.25997 -0.173813
LeftFoot  -20.6355 -0.638912 -9.32495
LeftToes  1.06246e-005 4.65856e-005 -8.18501e-006
224
root  5.41821 38.7022 -3.36769 94.5745 86.7127 94.9289
RightUpLeg  -19.2692 -10.6806 -6.54884
RightLeg  -2.82971 -16.9994 8.65081
RightFoot  6.49673 -1.64539 10.7798
RightToes  0.00048216 0.542163 -0.142577
Spine  14.8936 -0.163069 1.91187
Spine1  9.80828 1.23638 -4.58248
HEad  16.7645 15.8988 -11.5842
LeftShoulder1  6.0802 -9.67925 -39.8643
LeftArm  -27.3961 14.106 -25.3137
LeftForeArm  35.3764 -47.113 -9.49748
LeftHand  -0.25398 0.0180481 5.50724
RightShoulder  6.21344 10.7686 37.5088
RightArm  11.2597 -26.9773 36.6496
RightForeArm  -8.54745 16.1823 8.09333
RightHand  -1.69158 3.66403 -21.7445
LeftUpLeg  12.4384 9.52186 1.515
LeftLeg  13.8931 6.08224 -1.18563
LeftFoot  -22.0293 -0.411807 -5.75769
LeftToes  1.06246e-005 4.65856e-005 -8.18501e-006
225
root  4.11564 38.7713 -3.58872 93.929 84.88 93.8537
RightUpLeg  -19.4926 -11.5505 -8.51059
RightLeg  -5.29574 -16.8197 8.8312
RightFoot  4.20342 -1.96153 14.4638
RightToes  0.00048216 0.542163 -0.142577
Spine  14.5354 -0.086588 -0.763733
Spine1  9.71242 1.00241 -4.38463
HEad  15.8733 12.6772 -10.8104
LeftShoulder1  6.08605 -9.6143 -40.1225
LeftArm  -26.6567 13.1497 -23.8553
LeftForeArm  33.8823 -45.0033 -8.83908
LeftHand  -0.25398 0.0180481 5.50724
RightShoulder  6.25829 10.6331 38.2161
RightArm  8.82495 -29.3004 38.4009
RightForeArm  -3.78339 14.7315 8.50549
RightHand  -1.07981 1.19893 -18.9528
LeftUpLeg  9.39748 9.95904 -0.871152
LeftLeg  14.8859 5.83695 -1.66925
LeftFoot  -21.7167 -0.302208 -4.76551
LeftToes  1.06246e-005 4.65856e-005 -8.18501e-006
226
root  2.98747 39.0477 -3.87162 84.2666 84.6041 84.3627
RightUpLeg  -19.8962 -11.7414 -8.88189
RightLeg  -3.36491 -16.8524 8.14098
RightFoot  2.84798 -1.7036 13.7706
RightToes  0.00048216 0.542163 -0.142577
Spine  14.3546 -0.128507 -0.100137
Spine1  9.81334 1.39355 -5.58434
HEad  15.6988 10.4658 -10.62
LeftShoulder1  6.01577 -9.31077 -40.6383
LeftArm  -25.6219 13.0293 -23.0024
LeftForeArm  31.8596 -41.9324 -7.95345
LeftHand  -0.25398 0.0180481 5.50724
RightShoulder  6.24603 10.5032 38.5258
RightArm  6.92737 -31.6248 40.2228
RightForeArm  2.0487 14.257 8.30417
RightHand  -0.546606 -1.28129 -15.3082
LeftUpLeg  7.7423 9.67872 -2.02689
LeftLeg  14.6733 6.99938 -1.70767
LeftFoot  -20.1029 -0.230951 -4.57046
LeftToes  1.06246e-005 4.65856e-005 -8.18501e-006
